<svg width="19" height="18" viewBox="0 0 19 18" fill="none" xmlns="http://www.w3.org/2000/svg">
<path d="M4.56113 16.3636H7.76113C7.76113 17.2636 7.04113 18 6.16113 18C5.28113 18 4.56113 17.2636 4.56113 16.3636ZM2.96113 15.5455H9.36113V13.9091H2.96113V15.5455ZM12.1611 7.77273C12.1611 10.8982 10.0331 12.5673 9.14513 13.0909H3.17713C2.28913 12.5673 0.161133 10.8982 0.161133 7.77273C0.161133 4.38545 2.84913 1.63636 6.16113 1.63636C9.47313 1.63636 12.1611 4.38545 12.1611 7.77273ZM10.5611 7.77273C10.5611 5.29364 8.58513 3.27273 6.16113 3.27273C3.73713 3.27273 1.76113 5.29364 1.76113 7.77273C1.76113 9.79364 2.95313 10.9555 3.64113 11.4545H8.68113C9.36913 10.9555 10.5611 9.79364 10.5611 7.77273ZM16.0571 6.03L14.9611 6.54545L16.0571 7.06091L16.5611 8.18182L17.0651 7.06091L18.1611 6.54545L17.0651 6.03L16.5611 4.90909L16.0571 6.03ZM14.1611 4.90909L14.9131 3.22364L16.5611 2.45455L14.9131 1.68545L14.1611 0L13.4091 1.68545L11.7611 2.45455L13.4091 3.22364L14.1611 4.90909Z" fill="white"/>
</svg>
